<svg xmlns="http://www.w3.org/2000/svg" xmlns:osb="http://www.openswatchbook.org/uri/2009/osb" xmlns:svg="http://www.w3.org/2000/svg" xmlns:xlink="http://www.w3.org/1999/xlink" id="svg2" width="100" height="100" version="1.1" viewBox="0 0 100 100"><defs id="defs4"><linearGradient id="linearGradient4177" osb:paint="solid"><stop style="stop-color:#000;stop-opacity:1" id="stop4179" offset="0"/></linearGradient><clipPath id="clipPath4234" clipPathUnits="userSpaceOnUse"><path style="opacity:1;fill:#fff;fill-opacity:1;fill-rule:nonzero;stroke:#fff;stroke-width:2.85311651;stroke-linecap:round;stroke-linejoin:round;stroke-miterlimit:4;stroke-dasharray:none;stroke-dashoffset:0;stroke-opacity:1" id="path4236" d="M 49.336537,1019.8105 27.744596,981.74919 6.152657,943.68786 l 43.758053,0.3315 43.758051,0.3315 -22.166113,37.72983 z" transform="matrix(0,-1.0076468,0.58052724,0,-544.27258,1052.157)"/></clipPath><clipPath id="clipPath4238" clipPathUnits="userSpaceOnUse"><path style="opacity:1;fill:#fff;fill-opacity:1;fill-rule:nonzero;stroke:#fff;stroke-width:2.85311651;stroke-linecap:round;stroke-linejoin:round;stroke-miterlimit:4;stroke-dasharray:none;stroke-dashoffset:0;stroke-opacity:1" id="path4240" d="M 49.336537,1019.8105 27.744596,981.74919 6.152657,943.68786 l 43.758053,0.3315 43.758051,0.3315 -22.166113,37.72983 z" transform="matrix(0,-1.0076468,0.58052724,0,-544.27258,1052.157)"/></clipPath><clipPath id="clipPath4242" clipPathUnits="userSpaceOnUse"><path style="opacity:1;fill:#fff;fill-opacity:1;fill-rule:nonzero;stroke:#fff;stroke-width:2.85311651;stroke-linecap:round;stroke-linejoin:round;stroke-miterlimit:4;stroke-dasharray:none;stroke-dashoffset:0;stroke-opacity:1" id="path4244" d="M 49.336537,1019.8105 27.744596,981.74919 6.152657,943.68786 l 43.758053,0.3315 43.758051,0.3315 -22.166113,37.72983 z" transform="matrix(0,-1.0076468,0.58052724,0,-544.27258,1052.157)"/></clipPath></defs><metadata id="metadata7"/><g id="layer1" transform="translate(0,-952.36221)"><path style="opacity:1;fill:#b432e4;fill-opacity:1;fill-rule:nonzero;stroke:#fff;stroke-width:4.33052397;stroke-linecap:square;stroke-linejoin:round;stroke-miterlimit:4;stroke-dasharray:none;stroke-dashoffset:0;stroke-opacity:1" id="circle5689" d="m 79.75,967.61221 -24.75,19.5 0.328125,-12.80469 -26.621094,31.54298 c -3.810292,4.4436 -12.249507,14.8761 -0.621093,27.1465 12.235061,9.673 22.358729,4.188 28.042968,-3.1953 L 82.775391,993.03994 68.25,996.36221 Z"/><use id="use4166" width="100%" height="100%" x="0" y="0" transform="matrix(-1,0,0,1,99.747632,-0.1785715)" xlink:href="#path4162"/><circle id="circle4173" cx="-40.072" cy="1019.549" r="8.237" transform="scale(-1,1)" style="opacity:1;fill:#3d80fe;fill-opacity:1;fill-rule:nonzero;stroke:#fff;stroke-width:1.99999976;stroke-linecap:square;stroke-linejoin:round;stroke-miterlimit:4;stroke-dasharray:none;stroke-dashoffset:0;stroke-opacity:1"/></g></svg>